<mxfile host="app.diagrams.net" modified="2023-07-28T08:53:56.829Z" agent="Mozilla/5.0 (Macintosh; Intel Mac OS X 10_15_7) AppleWebKit/537.36 (KHTML, like Gecko) Chrome/114.0.0.0 Safari/537.36" version="21.6.3" etag="_Cijb5mcRGwEeg3rZx8P" type="github">
  <diagram name="第 1 页" id="M4FTqEk83SEQUKlFbiba">
    <mxGraphModel>
      <root>
        <mxCell id="0" />
        <mxCell id="1" parent="0" />
      </root>
    </mxGraphModel>
  </diagram>
</mxfile>
